<?xml version="1.0" encoding="iso-8859-1"?>
<!-- Generator: Adobe Illustrator 19.0.0, SVG Export Plug-In . SVG Version: 6.00 Build 0)  -->
<svg version="1.1" id="Capa_1" xmlns="http://www.w3.org/2000/svg" xmlns:xlink="http://www.w3.org/1999/xlink" x="0px" y="0px"
	 viewBox="0 0 551.999 551.999" style="enable-background:new 0 0 551.999 551.999;" xml:space="preserve">
<linearGradient id="SVGID_1_" gradientUnits="userSpaceOnUse" x1="256.3825" y1="553.1459" x2="256.3825" y2="1.8609" gradientTransform="matrix(0.9987 0 0 -0.9987 -0.0615 513.1799)">
	<stop  offset="0" style="stop-color:#2AF598"/>
	<stop  offset="1" style="stop-color:#009EFD"/>
</linearGradient>
<path style="fill:url(#SVGID_1_);" d="M440.731,411.803h10.702c33.042,0,59.925-26.882,59.925-59.925V160.119
	c0-33.043-26.882-59.925-59.925-59.925h-322.31L29.606,0.678L1.355,28.927l482.394,482.394l28.25-28.25L440.731,411.803z
	 M451.433,140.144c11.014,0,19.975,8.961,19.975,19.975v191.759c0,11.014-8.961,19.975-19.975,19.975h-50.651L169.073,140.144
	L451.433,140.144L451.433,140.144z M287.785,371.853l39.95,39.95H99.875c-33.042,0-59.925-26.882-59.925-59.925v-18.976H0V187.086
	h39.95v-26.966c0-10.409,2.672-20.204,7.36-28.742l32.59,32.591v63.067H39.95v65.917H79.9v58.926
	c0,11.014,8.961,19.975,19.975,19.975L287.785,371.853L287.785,371.853z"/>
<g>
</g>
<g>
</g>
<g>
</g>
<g>
</g>
<g>
</g>
<g>
</g>
<g>
</g>
<g>
</g>
<g>
</g>
<g>
</g>
<g>
</g>
<g>
</g>
<g>
</g>
<g>
</g>
<g>
</g>
</svg>
