<?xml version="1.0" encoding="UTF-8" standalone="no"?>
<!-- Generator: Adobe Illustrator 19.0.0, SVG Export Plug-In . SVG Version: 6.00 Build 0)  -->

<svg
   xmlns:dc="http://purl.org/dc/elements/1.1/"
   xmlns:cc="http://creativecommons.org/ns#"
   xmlns:rdf="http://www.w3.org/1999/02/22-rdf-syntax-ns#"
   xmlns:svg="http://www.w3.org/2000/svg"
   xmlns="http://www.w3.org/2000/svg"
   xmlns:sodipodi="http://sodipodi.sourceforge.net/DTD/sodipodi-0.dtd"
   xmlns:inkscape="http://www.inkscape.org/namespaces/inkscape"
   version="1.1"
   id="Capa_1"
   x="0px"
   y="0px"
   viewBox="0 0 512 412"
   style="enable-background:new 0 0 512 412;"
   xml:space="preserve"
   sodipodi:docname="phone-signal_0.svg"
   inkscape:version="0.92.4 5da689c313, 2019-01-14"><metadata
   id="metadata24"><rdf:RDF><cc:Work
       rdf:about=""><dc:format>image/svg+xml</dc:format><dc:type
         rdf:resource="http://purl.org/dc/dcmitype/StillImage" /></cc:Work></rdf:RDF></metadata><defs
   id="defs22" /><sodipodi:namedview
   pagecolor="#ffffff"
   bordercolor="#666666"
   borderopacity="1"
   objecttolerance="10"
   gridtolerance="10"
   guidetolerance="10"
   inkscape:pageopacity="0"
   inkscape:pageshadow="2"
   inkscape:window-width="2560"
   inkscape:window-height="1054"
   id="namedview20"
   showgrid="false"
   inkscape:zoom="1.1456311"
   inkscape:cx="256"
   inkscape:cy="267.10169"
   inkscape:window-x="0"
   inkscape:window-y="0"
   inkscape:window-maximized="1"
   inkscape:current-layer="Capa_1" />
<linearGradient
   id="a"
   gradientUnits="userSpaceOnUse"
   x1="256.3825"
   y1="413.1459"
   x2="256.3825"
   y2="1.8609"
   gradientTransform="matrix(0.9987,0,0,-0.9987,-0.0615,617.1799)">
	<stop
   offset="0"
   style="stop-color:#2AF598"
   id="stop2" />
	<stop
   offset="1"
   style="stop-color:#009EFD"
   id="stop4" /></linearGradient>
<path
   style="fill:url(#a)"
   d="m 10.667,306.667 h 64 c 5.891,0 10.667,4.776 10.667,10.667 v 85.333 c 0,5.891 -4.776,10.667 -10.667,10.667 h -64 C 4.776,413.333 0,408.558 0,402.667 v -85.333 c 0,-5.892 4.776,-10.667 10.667,-10.667 z"
   id="path7"
   inkscape:connector-curvature="0" />
<g
   id="g17"
   transform="translate(0,104)">
	<path
   style="fill:#455a64"
   d="m 181.333,309.333 h -64 c -5.891,0 -10.667,-4.776 -10.667,-10.667 0,-5.891 4.776,-10.667 10.667,-10.667 h 64 c 5.891,0 10.667,4.776 10.667,10.667 0,5.892 -4.776,10.667 -10.667,10.667 z"
   id="path9"
   inkscape:connector-curvature="0" />
	<path
   style="fill:#455a64"
   d="m 288,309.333 h -64 c -5.891,0 -10.667,-4.776 -10.667,-10.667 0,-5.891 4.776,-10.667 10.667,-10.667 h 64 c 5.891,0 10.667,4.776 10.667,10.667 0,5.892 -4.776,10.667 -10.667,10.667 z"
   id="path11"
   inkscape:connector-curvature="0" />
	<path
   style="fill:#455a64"
   d="m 394.667,309.333 h -64 c -5.891,0 -10.667,-4.776 -10.667,-10.667 0,-5.891 4.776,-10.667 10.667,-10.667 h 64 c 5.891,0 10.667,4.776 10.667,10.667 -10e-4,5.892 -4.776,10.667 -10.667,10.667 z"
   id="path13"
   inkscape:connector-curvature="0" />
	<path
   style="fill:#455a64"
   d="m 501.333,309.333 h -64 c -5.891,0 -10.667,-4.776 -10.667,-10.667 0,-5.891 4.776,-10.667 10.667,-10.667 h 64 c 5.891,0 10.667,4.776 10.667,10.667 0,5.892 -4.776,10.667 -10.667,10.667 z"
   id="path15"
   inkscape:connector-curvature="0" />
</g>
</svg>