<?xml version="1.0" encoding="UTF-8" standalone="no"?>
<svg
   xmlns:dc="http://purl.org/dc/elements/1.1/"
   xmlns:cc="http://creativecommons.org/ns#"
   xmlns:rdf="http://www.w3.org/1999/02/22-rdf-syntax-ns#"
   xmlns:svg="http://www.w3.org/2000/svg"
   xmlns="http://www.w3.org/2000/svg"
   xmlns:sodipodi="http://sodipodi.sourceforge.net/DTD/sodipodi-0.dtd"
   xmlns:inkscape="http://www.inkscape.org/namespaces/inkscape"
   height="512"
   viewBox="0 0 512.00067 512"
   width="512.00067"
   version="1.1"
   id="svg3817"
   sodipodi:docname="wifi-signal_0.svg"
   inkscape:version="0.92.4 5da689c313, 2019-01-14">
  <metadata
     id="metadata3823">
    <rdf:RDF>
      <cc:Work
         rdf:about="">
        <dc:format>image/svg+xml</dc:format>
        <dc:type
           rdf:resource="http://purl.org/dc/dcmitype/StillImage" />
      </cc:Work>
    </rdf:RDF>
  </metadata>
  <defs
     id="defs3821" />
  <sodipodi:namedview
     pagecolor="#ffffff"
     bordercolor="#666666"
     borderopacity="1"
     objecttolerance="10"
     gridtolerance="10"
     guidetolerance="10"
     inkscape:pageopacity="0"
     inkscape:pageshadow="2"
     inkscape:window-width="2560"
     inkscape:window-height="1080"
     id="namedview3819"
     showgrid="false"
     inkscape:zoom="1.410802"
     inkscape:cx="305.5"
     inkscape:cy="206.5"
     inkscape:window-x="0"
     inkscape:window-y="0"
     inkscape:window-maximized="1"
     inkscape:current-layer="svg3817" />
  <linearGradient
     id="a"
     gradientUnits="userSpaceOnUse"
     x1="256.38251"
     y1="713.14587"
     x2="256.38251"
     y2="1.8609"
     gradientTransform="matrix(0.9987,0,0,-0.9987,-0.0615,513.1799)">
    <stop
       offset="0"
       style="stop-color:#2AF598"
       id="stop3810" />
    <stop
       offset="1"
       style="stop-color:#009EFD"
       id="stop3812" />
  </linearGradient>
  <path
     d="m 288,433 c 0,18.22656 -14.77344,33 -33,33 -18.22656,0 -33,-14.77344 -33,-33 0,-18.22266 14.77344,-33 33,-33 18.22656,0 33,14.77734 33,33 z M 188.41016,92.484375 C 210.37891,87.519531 233.11719,85 256.00391,85 c 84.67187,0 163.28515,34.32031 221.36718,96.63672 3.9375,4.22656 9.27735,6.36328 14.63282,6.36328 4.88281,0 9.77734,-1.77734 13.63281,-5.36719 8.08203,-7.53125 8.52344,-20.1875 0.99609,-28.26953 C 440.90234,83.839844 351.89453,45 255.99609,45 c -25.83984,0 -51.54687,2.847656 -76.40234,8.46875 -10.77734,2.433594 -17.53516,13.140625 -15.10156,23.914062 2.43359,10.777344 13.14453,17.539063 23.91797,15.101563 z m 86.91015,88.503905 c -1.96484,10.87109 5.25,21.27344 16.1211,23.24219 42.1875,7.6289 81.38671,28.6875 113.35937,60.90625 3.91016,3.9375 9.05469,5.91015 14.19531,5.91015 5.09375,0 10.19141,-1.93359 14.08985,-5.80468 7.83984,-7.78125 7.88672,-20.44532 0.10547,-28.28516 -37.78125,-38.06641 -84.33594,-62.99219 -134.63282,-72.08984 -10.86718,-1.96875 -21.27343,5.2539 -23.23828,16.12109 z M 506.14062,477.85937 34.140625,5.859375 c -7.808594,-7.8125 -20.472656,-7.8125 -28.28125,0 -7.8125,7.808594 -7.8125,20.472656 0,28.285156 L 70.9375,99.222656 C 47.183594,114.62109 25.191406,133.09766 5.371094,154.36719 c -7.53125,8.07812 -7.085938,20.73437 0.992187,28.26562 3.855469,3.58985 8.75,5.36719 13.632813,5.36719 5.355468,0 10.695312,-2.13672 14.636718,-6.36328 19.585938,-21.01563 41.519532,-38.94141 65.308594,-53.41016 l 55.097654,55.09766 c -27.89453,12.86719 -53.86328,31.08594 -76.238279,53.63672 -7.78125,7.83984 -7.730469,20.5039 0.109375,28.28515 3.902344,3.8711 8.992188,5.80078 14.085938,5.80078 5.144531,0 10.289066,-1.97265 14.199216,-5.91015 23.03906,-23.22266 49.38281,-40.41797 78.40625,-51.25 l 64.21875,64.21875 c -32.77344,1.33984 -67.94922,17.04687 -92.82422,41.6875 -7.84375,7.77344 -7.90234,20.4375 -0.1289,28.28515 3.91015,3.94532 9.05859,5.92188 14.20703,5.92188 5.08594,0 10.17578,-1.92578 14.07812,-5.78906 C 203.67578,329.85937 230.83203,318 254.34375,318 h 0.008 1.44922 0.0117 c 15.09375,0 31.875,4.84766 47.25391,13.64844 0.19531,0.10937 0.39843,0.19531 0.59765,0.30078 L 477.85937,506.14453 C 481.76172,510.04687 486.88281,512 492,512 c 5.11719,0 10.23828,-1.95313 14.14062,-5.85547 7.8125,-7.8125 7.8125,-20.47656 0,-28.28516 z m 0,0"
     id="path3815"
     inkscape:connector-curvature="0"
     style="fill:url(#a)" />
</svg>
